<svg width="48" height="48" viewBox="0 0 48 48" fill="none" xmlns="http://www.w3.org/2000/svg">
<g opacity="0.54">
<path d="M31.5242 8.0066L27.412 8C22.7922 8 19.8066 11.0631 19.8066 15.804V19.4022H15.672C15.3147 19.4022 15.0254 19.6919 15.0254 20.0492V25.2625C15.0254 25.6198 15.315 25.9091 15.672 25.9091H19.8066V39.0641C19.8066 39.4214 20.0959 39.7107 20.4532 39.7107H25.8477C26.2049 39.7107 26.4943 39.421 26.4943 39.0641V25.9091H31.3286C31.6858 25.9091 31.9752 25.6198 31.9752 25.2625L31.9771 20.0492C31.9771 19.8776 31.9089 19.7133 31.7878 19.5919C31.6667 19.4705 31.5018 19.4022 31.3302 19.4022H26.4943V16.352C26.4943 14.8859 26.8436 14.1417 28.7534 14.1417L31.5235 14.1407C31.8805 14.1407 32.1698 13.8511 32.1698 13.4941V8.6532C32.1698 8.29658 31.8808 8.00726 31.5242 8.0066Z" fill="black"/>
</g>
</svg>
