<svg width="48" height="48" viewBox="0 0 48 48" fill="none" xmlns="http://www.w3.org/2000/svg">
<g opacity="0.54">
<path d="M32.551 22.9241H21.0939V26.7432H28.0839C27.0412 30.0634 23.9399 32.4718 20.2754 32.4718C15.7556 32.4718 12.0918 28.8077 12.0918 24.2881C12.0918 19.7683 15.7558 16.1045 20.2754 16.1045C22.5515 16.1045 24.6101 17.0338 26.0935 18.5335L28.8656 15.5203C26.6516 13.3508 23.6201 12.0127 20.2754 12.0127C13.4959 12.0126 8 17.5086 8 24.2881C8 31.0676 13.4959 36.5637 20.2755 36.5637C26.2142 36.5637 31.4136 32.3462 32.5511 26.7432V22.9242L32.551 22.9241Z" fill="black"/>
<path d="M39.9907 22.9177H37.6472V20.5742H35.6384V22.9177H33.2949V24.9263H35.6384V27.2699H37.6472V24.9263H39.9907V22.9177Z" fill="black"/>
</g>
</svg>
