<svg width="48" height="48" viewBox="0 0 48 48" fill="none" xmlns="http://www.w3.org/2000/svg">
<g opacity="0.54">
<path fill-rule="evenodd" clip-rule="evenodd" d="M16.7819 8H31.0411C35.8839 8 39.8236 11.9398 39.8234 16.7821V31.0413C39.8234 35.8837 35.8839 39.8234 31.0411 39.8234H16.7819C11.9396 39.8234 8 35.8839 8 31.0413V16.7821C8 11.9398 11.9396 8 16.7819 8ZM31.0413 36.9999C34.327 36.9999 37.0001 34.327 37.0001 31.0413H36.9999V16.7821C36.9999 13.4967 34.3268 10.8235 31.0411 10.8235H16.7819C13.4965 10.8235 10.8235 13.4967 10.8235 16.7821V31.0413C10.8235 34.327 13.4965 37.0001 16.7819 36.9999H31.0413Z" fill="black"/>
<path fill-rule="evenodd" clip-rule="evenodd" d="M15.7117 23.912C15.7117 19.3904 19.3902 15.7119 23.9118 15.7119C28.4334 15.7119 32.1119 19.3904 32.1119 23.912C32.1119 28.4334 28.4334 32.1117 23.9118 32.1117C19.3902 32.1117 15.7117 28.4334 15.7117 23.912ZM18.5352 23.9118C18.5352 26.8763 20.9472 29.288 23.9118 29.288C26.8763 29.288 29.2883 26.8763 29.2883 23.9118C29.2883 20.9471 26.8765 18.5353 23.9118 18.5353C20.9471 18.5353 18.5352 20.9471 18.5352 23.9118Z" fill="black"/>
<path d="M32.4557 13.3179C31.9117 13.3179 31.3773 13.5381 30.9931 13.924C30.6071 14.308 30.3851 14.8426 30.3851 15.3885C30.3851 15.9326 30.6072 16.467 30.9931 16.8529C31.3771 17.2369 31.9117 17.459 32.4557 17.459C33.0016 17.459 33.5343 17.2369 33.9202 16.8529C34.3061 16.467 34.5263 15.9325 34.5263 15.3885C34.5263 14.8426 34.3061 14.308 33.9202 13.924C33.5362 13.5381 33.0016 13.3179 32.4557 13.3179Z" fill="black"/>
</g>
</svg>
