<svg width="48" height="48" viewBox="0 0 48 48" fill="none" xmlns="http://www.w3.org/2000/svg">
<g opacity="0.54">
<path d="M39.9999 14.0983C38.8222 14.6202 37.5584 14.9742 36.2306 15.1322C37.5864 14.3203 38.6242 13.0326 39.1161 11.5028C37.8443 12.2547 36.4406 12.8006 34.9448 13.0966C33.7471 11.8188 32.0434 11.0229 30.1537 11.0229C26.5284 11.0229 23.589 13.9624 23.589 17.5857C23.589 18.0996 23.647 18.6015 23.759 19.0815C18.304 18.8075 13.4669 16.194 10.2295 12.2227C9.66363 13.1905 9.3417 14.3183 9.3417 15.5221C9.3417 17.7997 10.5015 19.8093 12.2612 20.985C11.1854 20.9491 10.1735 20.6531 9.28774 20.1612V20.2432C9.28774 23.4226 11.5513 26.0761 14.5527 26.68C14.0028 26.828 13.423 26.91 12.8231 26.91C12.3992 26.91 11.9892 26.868 11.5873 26.788C12.4231 29.3975 14.8467 31.2951 17.7182 31.3471C15.4726 33.1068 12.6411 34.1526 9.5657 34.1526C9.03582 34.1526 8.51388 34.1206 8 34.0626C10.9055 35.9283 14.3548 37.0161 18.0621 37.0161C30.1378 37.0161 36.7386 27.014 36.7386 18.3396L36.7166 17.4898C38.0063 16.5699 39.1221 15.4141 39.9999 14.0983Z" fill="black"/>
</g>
</svg>
